<?xml version="1.0" encoding="UTF-8" standalone="no"?><!DOCTYPE svg PUBLIC "-//W3C//DTD SVG 1.1//EN" "http://www.w3.org/Graphics/SVG/1.1/DTD/svg11.dtd"><svg width="100%" height="100%" viewBox="0 0 28 36" version="1.1" xmlns="http://www.w3.org/2000/svg" xmlns:xlink="http://www.w3.org/1999/xlink" xml:space="preserve" xmlns:serif="http://www.serif.com/" style="fill-rule:evenodd;clip-rule:evenodd;stroke-linejoin:round;stroke-miterlimit:2;"><path d="M20.15,19.198c2.786,-1.198 4.672,-3.12 5.66,-5.764c0.423,-1.093 0.634,-2.204 0.634,-3.332c0,-3.033 -1.234,-5.554 -3.702,-7.563c-2.045,-1.693 -4.443,-2.539 -7.193,-2.539l-13.381,0.053l-2.115,-0l-0,2.115l-0.053,15.814l-0,17.982l4.231,0l0,-15.866l10.631,-0c1.727,1.304 3.155,3.138 4.284,5.5c0.952,2.045 2.009,4.989 3.173,8.832l0.423,1.534l4.443,0l-0.847,-2.697c-2.08,-6.981 -4.143,-11.671 -6.188,-14.069Zm-11.265,-3.279l-4.654,0l0,-11.688l11.318,0c2.363,0 4.196,0.846 5.501,2.539c0.775,1.022 1.163,2.133 1.163,3.332c0,2.08 -0.987,3.684 -2.962,4.813c-1.128,0.634 -2.344,0.952 -3.649,0.952l-6.77,-0l0.053,0.052Z" style="fill:#fff;fill-opacity:0.81;fill-rule:nonzero;"/></svg>